<svg xmlns="http://www.w3.org/2000/svg" width="54" height="49" viewBox="0 0 54 49" data-v-4b9d1a10="" data-v-ae8f3330=""><defs data-v-4b9d1a10="" data-v-ae8f3330=""><linearGradient id="a" x1="0%" x2="0%" y1="0%" y2="175.407%" data-v-4b9d1a10="" data-v-ae8f3330=""><stop offset="0%" stop-color="#0096DC" data-v-4b9d1a10="" data-v-ae8f3330=""></stop><stop offset="100%" stop-color="#00E6E6" data-v-4b9d1a10="" data-v-ae8f3330=""></stop></linearGradient></defs><g fill="none" fill-rule="evenodd" data-v-4b9d1a10="" data-v-ae8f3330=""><path d="M-5-6h62v62H-5z" data-v-4b9d1a10="" data-v-ae8f3330=""></path><path fill="url(#a)" d="M45.64 18.372v16.31h-6.466v-16.31h-3.423l6.656-6.506 6.655 6.506H45.64zm-18.042 16.31h6.467V21.668h-6.467v13.016zm-11.575 0h6.465v-8.478h-6.465v8.479zM44.184 6H19.816C11.633 6 5 12.483 5 20.482V55l11.817-12.43h27.367C52.367 42.57 59 36.088 59 28.09v-7.608C59 12.483 52.367 6 44.184 6z" transform="translate(-5 -6)" data-v-4b9d1a10="" data-v-ae8f3330=""></path></g></svg>