<svg xmlns="http://www.w3.org/2000/svg" width="49" height="56" viewBox="0 0 49 56" data-v-4b9d1a10="" data-v-ae8f3330=""><defs data-v-4b9d1a10="" data-v-ae8f3330=""><linearGradient id="a" x1="0%" x2="0%" y1="0%" y2="175.407%" data-v-4b9d1a10="" data-v-ae8f3330=""><stop offset="0%" stop-color="#0096DC" data-v-4b9d1a10="" data-v-ae8f3330=""></stop><stop offset="100%" stop-color="#00E6E6" data-v-4b9d1a10="" data-v-ae8f3330=""></stop></linearGradient></defs><g fill="none" fill-rule="evenodd" data-v-4b9d1a10="" data-v-ae8f3330=""><path d="M-6-4h62v62H-6z" data-v-4b9d1a10="" data-v-ae8f3330=""></path><path fill="url(#a)" d="M38.544 13.287c-4.81 0-8.71 3.948-8.71 8.817s3.9 8.816 8.71 8.816c4.81 0 8.71-3.947 8.71-8.816 0-4.87-3.9-8.817-8.71-8.817zM55 34.981V4H21.263v40.55H55v-1.718L45.308 31.8a11.578 11.578 0 0 1-6.764 2.182c-6.481 0-11.737-5.318-11.737-11.879 0-6.562 5.256-11.88 11.737-11.88 6.482 0 11.737 5.318 11.737 11.88 0 2.535-.792 4.88-2.128 6.81L55 34.98zM18.471 11.896h-5.006v40.55h33.734v-5.07H18.471v-35.48zm-7.463 43.035h28.728V60H6V19.45h5.008v35.481z" transform="translate(-6 -4)" data-v-4b9d1a10="" data-v-ae8f3330=""></path></g></svg>