 <svg xmlns="http://www.w3.org/2000/svg" width="47" height="58" viewBox="0 0 47 58" data-v-4b9d1a10="" data-v-ae8f3330=""><defs data-v-4b9d1a10="" data-v-ae8f3330=""><linearGradient id="a" x1="0%" x2="0%" y1="0%" y2="175.407%" data-v-4b9d1a10="" data-v-ae8f3330=""><stop offset="0%" stop-color="#0096DC" data-v-4b9d1a10="" data-v-ae8f3330=""></stop><stop offset="100%" stop-color="#00E6E6" data-v-4b9d1a10="" data-v-ae8f3330=""></stop></linearGradient></defs><g fill="none" fill-rule="evenodd" data-v-4b9d1a10="" data-v-ae8f3330=""><path d="M-7-2h62v62H-7z" data-v-4b9d1a10="" data-v-ae8f3330=""></path><path fill="url(#a)" d="M30.5 2l-5.454 3.143H18.75l-3.15 5.446-5.453 3.143v6.288L7 25.464l3.148 5.446v6.288l5.454 3.144 3.149 5.444h6.295l5.453 3.144 5.454-3.144h6.297l3.148-5.444 5.454-3.144V30.91L54 25.464l-3.148-5.444v-6.288l-5.454-3.143-3.148-5.446h-6.297L30.499 2zm-5.511 17.295l6.147-2.83h2.389v18h-3.567V20.441l-3.504 1.62-1.465-2.767zm14.174 12.408l5.746-5.736-5.746-5.738 2.144-2.144 7.894 7.882-7.894 7.88-2.144-2.144zm-27.522-5.736l7.892-7.882 2.147 2.144-5.745 5.738 5.745 5.736-2.147 2.144-7.892-7.88zm24.86 22.53l-6.002 3.458-5.998-3.458h-5.32V60l11.296-3.005L42.277 60V48.497H36.5z" transform="translate(-7 -2)" data-v-4b9d1a10="" data-v-ae8f3330=""></path></g></svg>