    <svg xmlns="http://www.w3.org/2000/svg" width="58" height="58" viewBox="0 0 58 58" data-v-4b9d1a10="" data-v-ae8f3330=""><defs data-v-4b9d1a10="" data-v-ae8f3330=""><linearGradient id="a" x1="0%" x2="0%" y1="0%" y2="175.407%" data-v-4b9d1a10="" data-v-ae8f3330=""><stop offset="0%" stop-color="#0096DC" data-v-4b9d1a10="" data-v-ae8f3330=""></stop><stop offset="100%" stop-color="#00E6E6" data-v-4b9d1a10="" data-v-ae8f3330=""></stop></linearGradient></defs><g fill="none" fill-rule="evenodd" data-v-4b9d1a10="" data-v-ae8f3330=""><path d="M-2-2h62v62H-2z" data-v-4b9d1a10="" data-v-ae8f3330=""></path><path fill="url(#a)" d="M31.421 38.236h9.51v2.789h-9.805a2.882 2.882 0 0 1-4.728 0h-4.784v-2.79h4.488a2.89 2.89 0 0 1 5.32 0zm5.509-8.369h4.002v2.79H36.93a2.88 2.88 0 0 1-2.518 1.497 2.88 2.88 0 0 1-2.517-1.497h-10.28v-2.79h10.28a2.878 2.878 0 0 1 2.517-1.495c1.088 0 2.025.607 2.518 1.495zM26.69 21.5h14.242v2.789h-14.54a2.882 2.882 0 0 1-4.726 0h-.052v-.075a2.862 2.862 0 0 1-.475-1.582 2.89 2.89 0 0 1 5.55-1.132zM31 47.518c-9.078 0-16.519-7.44-16.519-16.517 0-9.079 7.44-16.518 16.519-16.518 9.077 0 16.517 7.44 16.517 16.518 0 9.077-7.44 16.517-16.517 16.517zm29-11.853v-9.457h-6.053c-.63-3.025-1.764-5.8-3.404-8.196l4.286-4.286-6.681-6.682-4.288 4.287c-2.395-1.64-5.169-2.776-8.196-3.406V2h-9.457v6.052c-3.024.63-5.798 1.764-8.195 3.405l-4.286-4.289-6.683 6.684 4.286 4.287c-1.638 2.395-2.774 5.17-3.404 8.196H2v9.457h6.052c.63 3.025 1.764 5.8 3.405 8.196L7.17 48.274l6.68 6.682 4.29-4.285c2.394 1.639 5.167 2.774 8.195 3.404V60h9.456v-6.052c3.025-.63 5.799-1.764 8.196-3.405l4.286 4.289 6.684-6.683-4.287-4.288c1.637-2.395 2.773-5.17 3.404-8.196H60z" transform="translate(-2 -2)" data-v-4b9d1a10="" data-v-ae8f3330=""></path></g></svg>