<svg xmlns="http://www.w3.org/2000/svg" width="54" height="54" viewBox="0 0 54 54" data-v-4b9d1a10="" data-v-ae8f3330=""><defs data-v-4b9d1a10="" data-v-ae8f3330=""><linearGradient id="a" x1="0%" x2="0%" y1="0%" y2="175.407%" data-v-4b9d1a10="" data-v-ae8f3330=""><stop offset="0%" stop-color="#0096DC" data-v-4b9d1a10="" data-v-ae8f3330=""></stop><stop offset="100%" stop-color="#00E6E6" data-v-4b9d1a10="" data-v-ae8f3330=""></stop></linearGradient></defs><g fill="none" fill-rule="evenodd" data-v-4b9d1a10="" data-v-ae8f3330=""><path d="M-5-5h62v62H-5z" data-v-4b9d1a10="" data-v-ae8f3330=""></path><path fill="url(#a)" d="M16.654 16.777c7.372-7.34 18.778-8.278 27.188-2.823h-4.591v5.277h14.3V5h-5.303v5.622c-10.573-7.949-25.713-7.16-35.343 2.424-6.072 6.04-8.907 14.695-7.586 23.149l5.24-.811a21.618 21.618 0 0 1 6.095-18.607m34.439 34.272c-5.264 5.24-12.18 7.86-19.093 7.86a27.039 27.039 0 0 1-15.542-4.917V59h-5.302V44.768h14.3v5.276h-5.45c6.912 4.566 15.883 4.75 22.983.597l-7.536-7.5c-4.146 1.388-8.904.453-12.206-2.834-3.06-3.047-4.09-7.338-3.117-11.233l6.677 6.644 6.818-1.818 1.827-6.787-6.676-6.644c3.916-.97 8.226.056 11.287 3.103 3.303 3.286 4.244 8.021 2.848 12.146l7.611 7.573A21.59 21.59 0 0 0 53.4 28.458l5.23-.872a26.86 26.86 0 0 1-7.536 23.463" transform="translate(-5 -5)" data-v-4b9d1a10="" data-v-ae8f3330=""></path></g></svg>