<svg xmlns="http://www.w3.org/2000/svg" width="51" height="53" viewBox="0 0 51 53" data-v-4b9d1a10="" data-v-ae8f3330=""><defs data-v-4b9d1a10="" data-v-ae8f3330=""><linearGradient id="a" x1="0%" x2="0%" y1="0%" y2="175.407%" data-v-4b9d1a10="" data-v-ae8f3330=""><stop offset="0%" stop-color="#0096DC" data-v-4b9d1a10="" data-v-ae8f3330=""></stop><stop offset="100%" stop-color="#00E6E6" data-v-4b9d1a10="" data-v-ae8f3330=""></stop></linearGradient></defs><g fill="none" fill-rule="evenodd" data-v-4b9d1a10="" data-v-ae8f3330=""><path d="M-6-5h62v62H-6z" data-v-4b9d1a10="" data-v-ae8f3330=""></path><path fill="url(#a)" d="M40.175 40.514l-3.322 3.411-5.352-5.496-5.353 5.496-3.322-3.41 5.353-5.497-5.353-5.497 3.322-3.41 5.353 5.497 5.352-5.496 3.322 3.409-5.353 5.497 5.353 5.496zM57 19.374H46.098a17.383 17.383 0 0 0-3.639-4.421l4.577-4.7L41.921 5 35.7 11.39a16.51 16.51 0 0 0-4.198-.56c-1.452 0-2.853.207-4.2.56L21.081 5l-5.116 5.253 4.576 4.7a17.435 17.435 0 0 0-3.639 4.42H6v7.428h8.573c-.04.491-.072.985-.072 1.486v3.342H6v7.43h8.5v1.484c0 1.144.114 2.26.32 3.344H6v7.427h12.14C21.253 55.38 26.074 58 31.5 58s10.249-2.62 13.362-6.686H57v-7.427h-8.819c.205-1.083.32-2.2.32-3.344v-1.485H57V31.63h-8.5v-3.342c0-.501-.03-.995-.073-1.486H57v-7.428z" transform="translate(-6 -5)" data-v-4b9d1a10="" data-v-ae8f3330=""></path></g></svg>